<?xml version="1.0" encoding="utf-8"?>
<!-- Generator: Adobe Illustrator 21.0.2, SVG Export Plug-In . SVG Version: 6.00 Build 0)  -->
<svg version="1.1" id="Layer_1" xmlns="http://www.w3.org/2000/svg" xmlns:xlink="http://www.w3.org/1999/xlink" x="0px" y="0px"
	 viewBox="0 0 1009.4445801 199.4785156" style="enable-background:new 0 0 1009.4445801 199.4785156;" xml:space="preserve">
<g>
	<g>
		<path d="M85.6703796,40.5101929H80.468689c-3.6782227,0-7.1988525,0.5516968-10.5610352,1.6550903
			c-6.5683289,2.4172363-11.033905,5.9898071-13.3983154,10.7186279h-0.2364197l-0.7093201-1.3398438
			c-5.307312-7.3556519-13.0310669-11.0338745-23.1712036-11.0338745h-5.2805176
			c-8.5646667,0-15.5262756,3.2313843-20.8856049,9.6940918v-8.4331055L5.9898376,41.53479H0.2364349L0,41.7711792v73.3754883
			l0.2364349,0.2364502h5.7534027l0.2364349-0.2364502V66.5186768c0-3.6774292,0.5249023-6.6991577,1.5762787-9.0635376
			c3.3621826-7.1452637,10.1141357-10.718689,20.2550964-10.718689h3.3889771c3.3101807,0,6.2262878,0.368103,8.7483215,1.1033936
			c8.774292,2.6796875,13.1618652,8.9327393,13.1618652,18.7576294v48.5491943l0.1576233,0.2364502h5.7533875l0.2364502-0.2364502
			V66.2822266c0-3.2045288,0.4728699-6.0158081,1.4186401-8.4330444
			c3.3101807-7.4084473,10.1141357-11.1127319,20.4127197-11.1127319h3.467804
			c4.1503296,0,7.8545532,0.6305542,11.1127014,1.8915405c7.1452637,3.0477295,10.7186584,9.142395,10.7186584,18.284729v48.2339478
			l0.2364502,0.2364502h5.7533875l0.2364502-0.2364502V65.96698c0-6.0418701-1.5242615-11.1127319-4.5711975-15.2109985
			C102.9825745,43.9259644,95.4432678,40.5101929,85.6703796,40.5101929z"/>
		<path d="M194.8272095,41.2195435l-0.2364197,0.2363892v15.1322021h-0.0788269l-1.0245667-1.6550293
			c-7.4613037-9.6152954-16.4720459-14.4229126-27.0330811-14.4229126h-0.3940735
			c-8.7750854,0-16.6296692,3.4157715-23.5652466,10.2457886c-7.1460266,7.7236938-10.7186584,16.7352295-10.7186584,27.03302
			v0.3152466c0,8.5119019,2.5220337,16.3144531,7.5661011,23.4076538
			c7.4605103,9.2479858,16.3664246,13.8712158,26.717804,13.8712158c3.5726318,0,7.0144348-0.5516968,10.324585-1.6550903
			c7.9861755-2.9421387,14.0288391-7.7497559,18.1271362-14.4229126h0.0788269v15.1322021l0.2364197,0.2364502h5.6745911
			l0.1576233-0.2364502V41.4559326l-0.1576233-0.2363892H194.8272095z M186.8670349,99.3839722
			c-5.8850098,6.6203003-12.7677917,9.930481-20.6491394,9.930481c-5.7802124,0-11.2443542-1.9175415-16.3932495-5.7533569
			c-7.986969-6.8300171-11.9796753-15.3947144-11.9796753-25.6932373c0-6.6203613,1.8915405-12.8986816,5.6745911-18.8364868
			c6.2522888-8.3013916,13.7923889-12.4525146,22.6195068-12.4525146c7.7757568,0,14.5805054,3.1793213,20.4127197,9.536438
			c5.359314,6.3579102,8.0390015,13.6087036,8.0390015,21.7525635
			C194.5907898,86.0124512,192.0159302,93.1844482,186.8670349,99.3839722z"/>
		<polygon points="224.6187439,0 224.5399475,0.0787964 224.5399475,115.3043213 224.6187439,115.3831177 230.6874084,115.3831177 
			230.7662048,115.3043213 230.7662048,0.0787964 230.6874084,0 		"/>
		<path d="M341.972229,40.5101929l-0.1576538,0.0787964l-16.7084961,53.7509155
			c-2.7324219,9.142334-4.2039185,13.8191528-4.4135742,14.0288086l-19.4669189-62.1051025
			c-1.0513916-3.835083-1.7078857-5.753418-1.9703369-5.753418h-3.1525269l-16.9449463,53.9085083
			c-2.7852783,9.090332-4.2827148,13.7403564-4.4923706,13.9500122l-18.3635864-59.1890259
			c-1.5762634-5.5689697-2.4960327-8.4590454-2.7584839-8.6694946h-6.5415039l-0.0788269,0.0787964l19.6246033,62.2627563
			c2.5220337,8.354248,3.8618774,12.5313721,4.0194702,12.5313721h8.5119019l0.0787964-0.0787964l15.9991455-51.071228
			c1.5762939-5.411377,2.4692383-8.1965942,2.6796875-8.354248l16.3143921,52.4110107
			c1.4706421,4.7288208,2.2587891,7.0932617,2.3644409,7.0932617h8.5118408l23.4864502-74.6364746l-0.1576538-0.2364502H341.972229z
			"/>
		<polygon points="364.9857788,115.3043213 365.0645752,115.3831177 371.1332397,115.3831177 371.2120361,115.3043213 
			371.2120361,40.5101929 364.9857788,40.5101929 		"/>
		<path d="M368.3747559,0h-0.5516968c-0.8409424,0-1.7338867,0.3152466-2.6796265,0.9457397
			c-1.3666382,1.1033936-2.0491943,2.3912354-2.0491943,3.8618774v0.4729004c0,0.736084,0.2096558,1.4974365,0.6304932,2.2855835
			c1.1033936,1.6818848,2.5740967,2.5220337,4.4135742,2.5220337c1.208252,0,2.2855835-0.394043,3.2313843-1.1821899
			c1.1553955-1.1033936,1.7338867-2.2587891,1.7338867-3.4678345V4.6500244c0-0.9458008-0.394043-1.9435425-1.1821899-2.9949341
			C370.8179932,0.5516968,369.6358032,0,368.3747559,0z"/>
		<path d="M428.0366821,40.5101929h-5.2805176c-8.5646973,0-15.5263062,3.2313843-20.8856201,9.6940918v-8.4331055
			l-0.2364502-0.2363892h-5.7533569l-0.2364502,0.2363892v73.3754883l0.2364502,0.2364502h5.7533569l0.2364502-0.2364502V66.5186768
			c0-3.6774292,0.5249023-6.6991577,1.5762939-9.0635376c3.3621826-7.1452637,10.1141357-10.718689,20.2550659-10.718689h3.3889771
			c3.3101807,0,6.2262573,0.368103,8.7483521,1.1033936c8.774292,2.6796875,13.1618652,8.9327393,13.1618652,18.7576294v48.5491943
			l0.1575928,0.2364502h5.753418l0.2364502-0.2364502V65.8093262c0-5.5169067-1.3398438-10.2977295-4.0195313-14.3440552
			C445.8217163,44.1624146,438.1248169,40.5101929,428.0366821,40.5101929z"/>
		<path d="M537.1146851,41.2195435l-0.2364502,0.2363892v15.1322021h-0.0787964l-1.0245972-1.6550293
			c-7.4620361-9.6152954-16.4720459-14.4229126-27.0330811-14.4229126h-0.394043
			c-8.7750854,0-16.6296997,3.4157715-23.5652466,10.2457886c-7.1460571,7.7236938-10.718689,16.7352295-10.718689,27.03302
			v0.3152466c0,8.5119019,2.5220337,16.3144531,7.5661011,23.4076538
			c7.4605103,9.2479858,16.3664551,13.8712158,26.7178345,13.8712158c3.5718384,0,7.0144043-0.5516968,10.324585-1.6550903
			c7.9854126-2.9421387,14.0288086-7.7497559,18.1271362-14.4229126h0.0787964v15.1322021l0.2364502,0.2364502h5.6745605
			l0.1576538-0.2364502V41.4559326l-0.1576538-0.2363892H537.1146851z M529.15448,99.3839722
			c-5.8858032,6.6203003-12.7677612,9.930481-20.6491089,9.930481c-5.7802124,0-11.2443848-1.9175415-16.3932495-5.7533569
			c-7.9869995-6.8300171-11.9796753-15.3947144-11.9796753-25.6932373c0-6.6203613,1.8915405-12.8986816,5.6745605-18.8364868
			c6.2523193-8.3013916,13.7924194-12.4525146,22.6195068-12.4525146c7.7757568,0,14.5805054,3.1793213,20.4127197,9.536438
			c5.359314,6.3579102,8.0390015,13.6087036,8.0390015,21.7525635
			C536.8782349,86.0124512,534.3026123,93.1844482,529.15448,99.3839722z"/>
		<path d="M619.0020142,91.5025635c-0.6304932,0.9985962-1.3934326,2.0231934-2.2855835,3.0737305
			c-1.5762939,1.5762939-2.8120728,2.6536865-3.7042847,3.2313843c-3.9942627,2.8372803-8.3021851,4.2559204-12.925415,4.2559204
			c-5.0976563,0-9.7476807-1.6282959-13.9500122-4.8864136c-1.2609863-1.0505981-2.4699707-2.2587891-3.6254272-3.6254272
			c-3.6254272-4.6760254-5.4381104-9.8516846-5.4381104-15.5263062c0-5.2537231,1.522644-10.0353394,4.571167-14.3440552
			c0.3673096-0.7353516,1.3918457-1.9435425,3.0737305-3.6254272c4.571228-4.0983276,9.6672974-6.1474609,15.289856-6.1474609
			c5.8842163,0,11.1379395,2.2067871,15.7626953,6.6203613c1.4707031,1.524231,2.4952393,2.7584229,3.0737305,3.7042236h0.0788574
			l12.6101685-8.354248c0-0.1047974-0.394104-0.6825562-1.1821899-1.7338867
			c-0.6305542-0.9978027-1.918335-2.4952393-3.8618774-4.4923706c-1.5762939-1.5234985-2.9949341-2.7584839-4.2559814-3.7042847
			c-6.831543-4.8336182-14.1864014-7.2508545-22.067749-7.2508545h-0.1576538
			c-7.6196899,0-14.7129517,2.2067871-21.2796631,6.6203613c-1.524292,1.0513916-3.3369751,2.5748291-5.4381714,4.571228
			c-1.7874756,1.9442749-3.1273193,3.5205688-4.0194702,4.7287598c-1.1569824,1.7339478-2.1815796,3.4158325-3.0737305,5.0440674
			c-2.8908691,5.9378662-4.3347778,11.848877-4.3347778,17.7330933v1.2609863c0,3.7830811,0.6825562,7.8025513,2.0491943,12.0585327
			c0.9457397,2.7852783,1.916748,5.0180664,2.9160767,6.6991577c0.8922119,1.7338867,2.3896484,3.8886108,4.4923706,6.4627075
			c0.9458008,1.156189,2.3896484,2.6276245,4.3347778,4.4135132c1.0498047,0.8409424,2.2067871,1.7079468,3.4677734,2.6008911
			c6.5147705,4.2559204,13.371521,6.3839111,20.5703735,6.3839111h0.7092896c6.7244263,0,13.2139282-1.8915405,19.46698-5.6746216
			c1.2610474-0.7880859,2.7584839-1.8914795,4.4923706-3.3101807c0.7345581-0.5248413,1.9955444-1.7598877,3.7830811-3.7042236
			c1.522644-1.7338867,2.7316284-3.3101807,3.6254272-4.7288208l-12.6890259-8.354248H619.0020142z"/>
		<path d="M684.0232544,39.8796997h-0.7093506c-3.3637695,0-6.1742554,0.2632446-8.4330444,0.788147
			c-4.3615723,1.2609863-7.8813477,2.6276245-10.5610352,4.0982666h-0.0787964V0h-15.2110596v115.3831177h15.2110596V69.750061
			c0-5.6746216,1.7338867-9.5625,5.2016602-11.6644287c2.6796875-1.9963379,7.2240601-2.9949341,13.6347656-2.9949341h1.2610474
			c3.5197754,0,6.4091187,0.4996948,8.6694946,1.4974365c5.4113159,2.0491943,8.1177979,6.3051147,8.1177979,12.7678223v45.7907104
			l0.1575928,0.2364502h14.8169556l0.1576538-0.2364502V69.5136108c0-5.4641724-1.0245972-10.2189941-3.0737305-14.2652588
			C707.2984619,45.0025635,697.5791626,39.8796997,684.0232544,39.8796997z"/>
		<path d="M796.4902344,39.8796997l-0.2364502,0.1575928v8.6694946
			c-6.2530518-6.6723633-13.7670898-10.0093384-22.5406494-10.0093384c-9.3536377,0-17.7330933,3.1005859-25.1415405,9.3000488
			c-8.9327393,8.4070435-13.3983154,18.3903809-13.3983154,29.9491577v0.0787964
			c0,9.3528442,2.994873,17.7858887,8.9847412,25.2991943c8.0390015,9.2999878,17.8118286,13.9500122,29.3186646,13.9500122
			h0.0787964c9.2463989,0,16.812561-3.2313843,22.6983032-9.6940918v7.6448975l0.2364502,0.1576538h14.895752l0.1575928-0.1576538
			V40.0372925l-0.1575928-0.1575928H796.4902344z M796.2537842,78.0254517c0,6.8308105-2.4699707,12.7678223-7.4084473,17.8118896
			c-4.7288818,4.0983276-9.6152344,6.1474609-14.6593628,6.1474609h-1.7338867
			c-3.5734253,0-7.3564453-1.2081909-11.3491821-3.6254272c-7.1467896-5.3065186-10.7186279-12.1104736-10.7186279-20.4127197
			c0-5.3065186,1.7070923-10.3765869,5.1228638-15.2110596c5.0961304-5.8321533,10.7974854-8.748291,17.1026001-8.748291h1.2609863
			c3.835083,0,7.7237549,1.2089844,11.6644287,3.6254272c7.1452637,5.1497192,10.7186279,11.9276733,10.7186279,20.3339233
			V78.0254517z"/>
		<path d="M931.1826172,39.8796997l-0.2363281,0.1575928v8.6694946
			c-6.2531738-6.6723633-13.7672119-10.0093384-22.5407715-10.0093384c-9.3535156,0-17.7330322,3.1005859-25.1414795,9.3000488
			c-8.9327393,8.4070435-13.3983154,18.3903809-13.3983154,29.9491577v0.0787964
			c0,9.3528442,2.994873,17.7858887,8.9847412,25.2991943c8.0389404,9.2999878,17.8118896,13.9500122,29.3186035,13.9500122
			h0.0788574c9.24646,0,16.8125-3.2313843,22.6983643-9.6940918v7.6448975l0.2363281,0.1576538h14.895874l0.1575928-0.1576538
			V40.0372925l-0.1575928-0.1575928H931.1826172z M930.9462891,78.0254517c0,6.8308105-2.4700928,12.7678223-7.4085693,17.8118896
			c-4.7287598,4.0983276-9.6152344,6.1474609-14.6593018,6.1474609h-1.7338867
			c-3.5733643,0-7.3564453-1.2081909-11.3491211-3.6254272c-7.1468506-5.3065186-10.71875-12.1104736-10.71875-20.4127197
			c0-5.3065186,1.7071533-10.3765869,5.1229248-15.2110596c5.0960693-5.8321533,10.7974854-8.748291,17.1025391-8.748291h1.2611084
			c3.8349609,0,7.7236328,1.2089844,11.6643066,3.6254272c7.1452637,5.1497192,10.71875,11.9276733,10.71875,20.3339233V78.0254517z
			"/>
		<path d="M1003.7700195,97.8076782l-0.6304932,0.3152466c-3.7830811,1.3666382-6.6992188,2.0491333-8.748291,2.0491333
			c-1.47229,0-2.8909912-0.3672485-4.2559814-1.1033325c-1.9971924-0.9978027-2.994873-2.9681396-2.994873-5.9110718V55.0906982
			h19.5457764l0.0787354-0.0787964V39.8796997l-0.0787354-0.0788574h-19.5457764V0.0787964L987.0615234,0h-15.1322021v39.8008423
			H960.737793l-0.0788574,0.0788574v15.1322021l0.0788574,0.0787964h11.1915283v38.6186523
			c0,3.2053833,0.7093506,6.4107056,2.1279297,9.6152954c0.4729004,1.0513306,1.1286621,2.1279297,1.9703369,3.2313232
			l1.3398438,1.7338867c1.2073975,1.15625,2.1800537,1.9971924,2.9161377,2.5220947
			c4.3599854,3.0476685,9.0367432,4.571167,14.0288086,4.571167h0.1575928c2.5220947,0,5.4633789-0.420105,8.8271484-1.2610474
			c2.8372803-0.8401489,4.8864746-1.5234375,6.1474609-2.0491333L1003.7700195,97.8076782z"/>
		<polygon points="856.9008789,40.5144043 850.6351318,46.7800903 850.6351318,0.0787964 850.5563965,0 835.5029297,0 
			835.4241943,0.0787964 835.4241943,61.9911499 823.5516357,73.8635864 823.5949707,73.9771118 829.6286621,80.0108643 
			829.7421875,80.0540161 835.4241943,74.3720703 835.4241943,115.3043213 835.5029297,115.3831177 850.5563965,115.3831177 
			850.6351318,115.3043213 850.6351318,59.1610107 863.0913086,46.7049561 		"/>
	</g>
	<g>
		<path d="M1.2486572,166.9255981h3.126358v31.8638306h-3.126358V166.9255981z"/>
		<path d="M44.0096436,198.7894287c-0.5923157-1.0656738-1.3337097-2.3235474-2.2267761-3.7722778
			c-0.8930359-1.4487915-1.8854675-2.9864502-2.9772949-4.6143799c-1.0917969-1.6265869-2.2306824-3.3081055-3.4179382-5.0471802
			c-1.1872559-1.7363892-2.3692932-3.4257813-3.5461121-5.0680542c-1.1767883-1.642334-2.3287354-3.1812744-3.4545593-4.6170044
			c-1.1271057-1.4356689-2.1260681-2.6765747-2.9995117-3.7213135v26.84021h-3.0805969v-31.8638306h2.4830322
			c1.5638428,1.7456055,3.2414246,3.7631836,5.0288696,6.0500488c1.7874146,2.288269,3.5395508,4.6196289,5.2576599,6.9941406
			c1.7168274,2.3758545,3.3211975,4.6954346,4.8092041,6.9627075c1.4892883,2.267334,2.709259,4.2417603,3.6637573,5.9258423
			v-25.9327393h3.0805969v31.8638306H44.0096436z"/>
		<path d="M71.4120789,196.7666626c2.4830627,0,4.4143066-0.4524536,5.7937927-1.3598633
			c1.3794556-0.9061279,2.0685425-2.37323,2.0685425-4.4012451c0-1.1676636-0.22229-2.1430664-0.6655273-2.9263306
			c-0.4458923-0.7832031-1.0355835-1.4435425-1.7704468-1.980896c-0.736145-0.5374146-1.5795288-0.9976807-2.5288086-1.3781738
			c-0.950592-0.3804932-1.9469604-0.7845459-2.9890747-1.2108154c-1.3180237-0.5178223-2.4987488-1.0499878-3.540863-1.5991211
			c-1.0421143-0.5479126-1.9312439-1.1676636-2.6661072-1.8580322c-0.736145-0.6890869-1.2957764-1.4775391-1.678894-2.367981
			c-0.3831177-0.8878784-0.5740051-1.9299927-0.5740051-3.1264038c0-2.7275391,0.9035034-4.7960815,2.711853-6.2069702
			c1.8083496-1.4095459,4.3227844-2.1156006,7.5406799-2.1156006c0.8577576,0,1.7024231,0.0627441,2.5288086,0.1843872
			c0.8276978,0.1228638,1.6017456,0.2836914,2.3222351,0.4824829c0.720459,0.2000122,1.3794556,0.4223022,1.9770203,0.6668091
			c0.5988464,0.2458496,1.0957336,0.5060425,1.4945374,0.7819214l-1.1035767,2.6203613
			c-0.8891602-0.6119385-1.9691772-1.1035767-3.2414551-1.4710083c-1.2722473-0.3674316-2.6438599-0.5517578-4.1148682-0.5517578
			c-1.0120544,0-1.9390869,0.100647-2.7824707,0.2993774c-0.8433838,0.1987915-1.5703735,0.5217285-2.1836243,0.9650269
			c-0.6132507,0.444519-1.0957336,1.0041504-1.448761,1.678894c-0.3517456,0.6746826-0.5282593,1.4866943-0.5282593,2.4359741
			c0,0.9819336,0.1843567,1.8096313,0.5517883,2.4830322c0.3674316,0.6746826,0.8812866,1.2578735,1.5403137,1.74823
			c0.6589966,0.4902954,1.433075,0.9348755,2.3222046,1.3323975c0.8891296,0.3988037,1.854126,0.8132935,2.8962402,1.2421265
			c1.2565613,0.5217285,2.4438171,1.0421753,3.5643921,1.562561c1.1179504,0.5217285,2.0921021,1.1349487,2.918457,1.8397217
			c0.8276978,0.7060547,1.4866943,1.5638428,1.9783325,2.574585c0.4890442,1.0120239,0.7348633,2.2529297,0.7348633,3.7252197
			c0,2.8805542-1.0042114,5.0419312-3.011322,6.4828491c-2.0083923,1.440918-4.7294312,2.1600952-8.1617432,2.1600952
			c-1.2265015,0-2.3444519-0.0758667-3.3565063-0.2288208c-1.0107422-0.1542969-1.9155579-0.3452148-2.7131653-0.5753174
			c-0.7962952-0.2301636-1.4710083-0.4667969-2.0227966-0.7126465c-0.5517883-0.2445068-0.9806519-0.4602661-1.2866211-0.6433105
			l1.0107117-2.7131958c0.3059692,0.1843872,0.7204895,0.3988647,1.2421875,0.6433716
			c0.5204163,0.2457886,1.133667,0.4837646,1.8384399,0.7125854c0.7047729,0.2301636,1.5023804,0.4223633,2.39151,0.5753174
			C69.3579102,196.6907959,70.3385925,196.7666626,71.4120789,196.7666626z"/>
		<path d="M118.2199707,166.9255981v2.7131958h-10.2067871v29.1506348h-3.1263733v-29.1506348H94.6787415v-2.7131958H118.2199707z"
			/>
		<path d="M154.0835876,176.4890747c0,2.3915405-0.6289063,4.2756958-1.8854675,5.6551514
			c-1.2565613,1.3795166-2.9119263,2.3758545-4.966095,2.9890747c0.4903259,0.6132813,1.1271057,1.440918,1.9090271,2.4830933
			c0.7806091,1.0421143,1.5860596,2.1835938,2.4137268,3.4257813c0.8276978,1.2408447,1.639679,2.5366211,2.4372864,3.8847656
			c0.7962952,1.3493652,1.4710083,2.6373291,2.0227966,3.8624878h-3.3565063
			c-0.6446228-1.2251587-1.3415527-2.4516602-2.0920715-3.6781616c-0.7518616-1.2265015-1.5180664-2.4137573-2.2986755-3.5630493
			c-0.7819214-1.1506958-1.5403137-2.2150269-2.2764587-3.1956787c-0.7361755-0.9806519-1.3794861-1.8397217-1.9312744-2.5759277
			c-0.9819641,0.0928345-1.9626465,0.1386108-2.9432983,0.1386108h-5.1491699v12.8742065h-3.1263428v-31.2662354
			c1.1035767-0.3059692,2.3980408-0.5282593,3.8847351-0.6668701c1.4866943-0.1373291,2.8583069-0.206604,4.1148682-0.206604
			c4.3842468,0,7.6858215,0.8276978,9.9086609,2.4830322C152.972168,170.788147,154.0835876,173.2410889,154.0835876,176.4890747z
			 M141.2094116,169.362915c-1.1650391,0-2.1849365,0.0379028-3.0583801,0.1150513
			c-0.8734436,0.0758057-1.6017456,0.1451416-2.1836243,0.206604v13.5632324h4.3214722
			c1.4409485,0,2.8060303-0.0679932,4.0926514-0.206543c1.2879639-0.1373291,2.4059143-0.4432983,3.3565063-0.9192505
			c0.950592-0.4746094,1.7011414-1.1571655,2.2529297-2.0463257c0.5517883-0.8890991,0.8276672-2.0986328,0.8276672-3.6323853
			c0-1.4095459-0.2758789-2.574585-0.8276672-3.4951172c-0.5517883-0.9191895-1.2722778-1.6461792-2.1614075-2.1835938
			c-0.8891296-0.5360718-1.9077148-0.9035034-3.0570679-1.1035767
			C143.6231689,169.4622803,142.4346008,169.362915,141.2094116,169.362915z"/>
		<path d="M182.4065552,199.4785156c-2.1156311,0-3.9161072-0.3216553-5.4028015-0.9649658
			s-2.6896667-1.5324707-3.6088562-2.6674194c-0.9205322-1.133667-1.5860596-2.4595337-2.0005798-3.9762573
			c-0.4131775-1.5180664-0.6210632-3.1499023-0.6210632-4.8967896v-20.0474854h3.127655v19.6329346
			c0,1.7469482,0.206604,3.2571411,0.6197815,4.5294189c0.4144897,1.2722168,0.9885254,2.3222046,1.7246704,3.1499023
			c0.736145,0.8276367,1.6239929,1.440918,2.6661072,1.8383789c1.0421143,0.3988037,2.2071533,0.5975952,3.4950867,0.5975952
			c1.2879639,0,2.4516602-0.1987915,3.4938049-0.5975952c1.0421143-0.3974609,1.9312439-1.0107422,2.6674194-1.8383789
			c0.736145-0.8276978,1.3101501-1.8776855,1.7246399-3.1499023c0.413208-1.2722778,0.6197815-2.7824707,0.6197815-4.5294189
			v-19.6329346h3.1276855v20.0474854c0,1.7468872-0.2079163,3.3787231-0.6210938,4.8967896
			c-0.4144897,1.5167236-1.0800476,2.8425903-2.0005493,3.9762573c-0.91922,1.1349487-2.1221619,2.0241089-3.6088562,2.6674194
			C186.3213806,199.1568604,184.5221863,199.4785156,182.4065552,199.4785156z"/>
		<path d="M231.2829895,198.7894287c-1.0421143-1.5964966-2.2136841-3.1773682-3.517334-4.7424927
			c-1.3023071-1.5651245-2.6739502-3.0387573-4.1148682-4.4208374c-1.440918-1.3807983-2.9040833-2.6399536-4.3907776-3.7762451
			c-1.4866943-1.1349487-2.9197693-2.086853-4.2992249-2.8543701v15.7939453h-3.1263733v-31.8638306h3.1263733v14.8289795
			c1.1650085-1.0407715,2.4608154-2.2424316,3.8886719-3.6049194c1.4252319-1.361145,2.8360901-2.7314453,4.2325439-4.1083374
			c1.3964844-1.3768311,2.7079468-2.6935425,3.9344482-3.9487915c1.2277832-1.2539673,2.2084656-2.3104858,2.9446106-3.1669312
			h3.7709961c-0.8891602,0.9492798-1.9639587,2.0737915-3.22052,3.3748169
			c-1.2578735,1.3010254-2.5928955,2.6399536-4.0037231,4.0167847c-1.4108582,1.3768921-2.8151855,2.7315063-4.2103577,4.0626221
			c-1.3964539,1.3310547-2.6464844,2.5013428-3.750061,3.512085c0.8891296,0.5531006,1.846283,1.2355957,2.8740234,2.0489502
			c1.0264282,0.8132935,2.0685425,1.7037354,3.1263428,2.6699829c1.0578308,0.9675903,2.0986328,1.980957,3.1263733,3.0387573
			c1.0264282,1.0591431,1.9927063,2.1260986,2.8962402,3.2009277c0.9048157,1.0748291,1.7168274,2.1169434,2.4372864,3.130249
			c0.720459,1.0133667,1.3101807,1.949585,1.7704163,2.8086548H231.2829895z"/>
		<path d="M270.0428467,166.9255981v2.7131958h-10.2067566v29.1506348h-3.1263733v-29.1506348h-10.2080994v-2.7131958H270.0428467z"
			/>
		<path d="M312.5292969,182.8346558c0,2.7288818-0.3988037,5.1347656-1.1951294,7.2189941
			c-0.7976074,2.0842285-1.8776855,3.8233032-3.2414551,5.2184448c-1.3650513,1.3952026-2.9511108,2.4451294-4.7594604,3.1499023
			s-3.723938,1.0565186-5.7467041,1.0565186c-2.0241089,0-3.9396973-0.3517456-5.7480469-1.0565186
			s-3.3956909-1.7546997-4.7581787-3.1499023c-1.3651123-1.3951416-2.4451294-3.1342163-3.2427368-5.2184448
			c-0.7963257-2.0842285-1.1951294-4.4901123-1.1951294-7.2189941c0-2.7276001,0.3988037-5.1269531,1.1951294-7.1954956
			c0.7976074-2.0698853,1.8776245-3.8010864,3.2427368-5.196228c1.3624878-1.3938599,2.9498291-2.4438477,4.7581787-3.1499023
			c1.8083496-0.7047729,3.723938-1.0578003,5.7480469-1.0578003c2.0227661,0,3.9383545,0.3530273,5.7467041,1.0578003
			c1.8083496,0.7060547,3.3944092,1.7560425,4.7594604,3.1499023c1.3637695,1.3951416,2.4438477,3.1263428,3.2414551,5.196228
			C312.1304932,177.7077026,312.5292969,180.1070557,312.5292969,182.8346558z M309.2185669,182.8346558
			c0-2.1456909-0.2759399-4.0691528-0.8276978-5.7702637c-0.5518188-1.7011108-1.3323975-3.1499023-2.3444824-4.3450317
			c-1.0120239-1.1964111-2.2293701-2.1077271-3.6558838-2.7366943c-1.4252319-0.6276245-3.0270386-0.942749-4.8039551-0.942749
			c-1.7783203,0-3.3800659,0.3151245-4.8052979,0.942749c-1.4252319,0.6289673-2.6438599,1.5402832-3.6559448,2.7366943
			c-1.0107422,1.1951294-1.7926636,2.6439209-2.3444214,4.3450317c-0.5518188,1.7011108-0.8276978,3.6245728-0.8276978,5.7702637
			s0.2758789,4.0690918,0.8276978,5.7702026c0.5517578,1.7011719,1.3336792,3.1499023,2.3444214,4.3450317
			c1.012085,1.1951294,2.2307129,2.1156006,3.6559448,2.7589722c1.4252319,0.6433105,3.0269775,0.9649658,4.8052979,0.9649658
			c1.7769165,0,3.3787231-0.3216553,4.8039551-0.9649658c1.4265137-0.6433716,2.6438599-1.5638428,3.6558838-2.7589722
			c1.012085-1.1951294,1.7926636-2.6438599,2.3444824-4.3450317
			C308.942627,186.9037476,309.2185669,184.9803467,309.2185669,182.8346558z"/>
		<path d="M350.4157104,176.4890747c0,2.3915405-0.6289673,4.2756958-1.885498,5.6551514
			c-1.2565918,1.3795166-2.9119263,2.3758545-4.9661255,2.9890747c0.4903564,0.6132813,1.1271362,1.440918,1.9090576,2.4830933
			c0.7805786,1.0421143,1.5860596,2.1835938,2.4137573,3.4257813c0.8276367,1.2408447,1.6396484,2.5366211,2.4372559,3.8847656
			c0.7963257,1.3493652,1.4710083,2.6373291,2.0227661,3.8624878h-3.3564453
			c-0.6446533-1.2251587-1.3415527-2.4516602-2.0921021-3.6781616c-0.7518311-1.2265015-1.5180664-2.4137573-2.2987061-3.5630493
			c-0.7819214-1.1506958-1.5402832-2.2150269-2.2764282-3.1956787s-1.3794556-1.8397217-1.9312744-2.5759277
			c-0.9819946,0.0928345-1.9626465,0.1386108-2.9432983,0.1386108h-5.1491699v12.8742065h-3.1263428v-31.2662354
			c1.1035767-0.3059692,2.3980713-0.5282593,3.8847046-0.6668701c1.4866943-0.1373291,2.8583374-0.206604,4.1149292-0.206604
			c4.3842163,0,7.685791,0.8276978,9.9086304,2.4830322C349.3042603,170.788147,350.4157104,173.2410889,350.4157104,176.4890747z
			 M337.5415039,169.362915c-1.1650391,0-2.1849365,0.0379028-3.0583496,0.1150513
			c-0.8734741,0.0758057-1.6018066,0.1451416-2.1836548,0.206604v13.5632324h4.3214722
			c1.440918,0,2.8060303-0.0679932,4.0926514-0.206543c1.2879639-0.1373291,2.4058838-0.4432983,3.3565063-0.9192505
			c0.9505615-0.4746094,1.7011108-1.1571655,2.2529297-2.0463257c0.5517578-0.8890991,0.8276367-2.0986328,0.8276367-3.6323853
			c0-1.4095459-0.2758789-2.574585-0.8276367-3.4951172c-0.5518188-0.9191895-1.2722778-1.6461792-2.161377-2.1835938
			c-0.8891602-0.5360718-1.9077759-0.9035034-3.0570679-1.1035767
			C339.9552612,169.4622803,338.7666626,169.362915,337.5415039,169.362915z"/>
		<path d="M394.2332153,196.7666626c2.4830322,0,4.4143066-0.4524536,5.7937622-1.3598633
			c1.3794556-0.9061279,2.0685425-2.37323,2.0685425-4.4012451c0-1.1676636-0.22229-2.1430664-0.6655273-2.9263306
			c-0.4459229-0.7832031-1.0355835-1.4435425-1.7704468-1.980896c-0.736145-0.5374146-1.5795288-0.9976807-2.5288086-1.3781738
			c-0.9506226-0.3804932-1.9469604-0.7845459-2.9890747-1.2108154c-1.3179932-0.5178223-2.4987183-1.0499878-3.5408936-1.5991211
			c-1.0421143-0.5479126-1.9312134-1.1676636-2.6660767-1.8580322c-0.736145-0.6890869-1.2957764-1.4775391-1.678894-2.367981
			c-0.3831177-0.8878784-0.5740356-1.9299927-0.5740356-3.1264038c0-2.7275391,0.9035034-4.7960815,2.711853-6.2069702
			c1.8083496-1.4095459,4.3228149-2.1156006,7.5407104-2.1156006c0.8577271,0,1.7024536,0.0627441,2.5288086,0.1843872
			c0.8276978,0.1228638,1.6017456,0.2836914,2.3222046,0.4824829c0.720459,0.2000122,1.3794556,0.4223022,1.9770508,0.6668091
			c0.5988159,0.2458496,1.0957031,0.5060425,1.4945068,0.7819214l-1.1035767,2.6203613
			c-0.8890991-0.6119385-1.9691772-1.1035767-3.241394-1.4710083c-1.2722778-0.3674316-2.6439209-0.5517578-4.1149292-0.5517578
			c-1.0120239,0-1.9390869,0.100647-2.7824707,0.2993774c-0.8433838,0.1987915-1.5703735,0.5217285-2.1835938,0.9650269
			c-0.6132202,0.444519-1.0957642,1.0041504-1.4487915,1.678894c-0.3517456,0.6746826-0.5282593,1.4866943-0.5282593,2.4359741
			c0,0.9819336,0.1843872,1.8096313,0.5518188,2.4830322c0.3674316,0.6746826,0.8812866,1.2578735,1.5402832,1.74823
			c0.6589966,0.4902954,1.4331055,0.9348755,2.3222046,1.3323975c0.8891602,0.3988037,1.854126,0.8132935,2.8962402,1.2421265
			c1.2565918,0.5217285,2.4438477,1.0421753,3.5643921,1.562561c1.117981,0.5217285,2.0921021,1.1349487,2.918457,1.8397217
			c0.8276978,0.7060547,1.4866943,1.5638428,1.9783325,2.574585c0.4890747,1.0120239,0.7348633,2.2529297,0.7348633,3.7252197
			c0,2.8805542-1.0042114,5.0419312-3.0112915,6.4828491c-2.0084229,1.440918-4.7294312,2.1600952-8.1617432,2.1600952
			c-1.2265015,0-2.3444824-0.0758667-3.3565063-0.2288208c-1.0107422-0.1542969-1.9155884-0.3452148-2.7131958-0.5753174
			c-0.7962646-0.2301636-1.4710083-0.4667969-2.0227661-0.7126465c-0.5518188-0.2445068-0.9806519-0.4602661-1.2866211-0.6433105
			l1.0107422-2.7131958c0.3059692,0.1843872,0.720459,0.3988647,1.2421265,0.6433716
			c0.5204468,0.2457886,1.133667,0.4837646,1.8384399,0.7125854c0.7047729,0.2301636,1.5023804,0.4223633,2.3915405,0.5753174
			C392.1790161,196.6907959,393.159668,196.7666626,394.2332153,196.7666626z"/>
		<path d="M441.0410767,166.9255981v2.7131958h-10.2067871v29.1506348h-3.1263428v-29.1506348h-10.2081299v-2.7131958H441.0410767z"
			/>
		<path d="M464.4436646,198.7894287v-13.1043091c-2.1848755-3.3408203-4.1932983-6.5665283-6.0252075-9.6785278
			c-1.8305664-3.1106567-3.5316772-6.1389771-5.100769-9.0809937h3.6323853
			c1.2892456,2.6975098,2.7119141,5.4329224,4.2639771,8.2075195c1.5507202,2.7746582,3.1721191,5.4185181,4.862793,7.9316406
			c1.6278687-2.5131226,3.225708-5.1569824,4.793457-7.9316406c1.5678101-2.7745972,3.0113525-5.5100098,4.333252-8.2075195
			h3.4022827c-1.6253052,2.9119263-3.3408203,5.9389038-5.1491699,9.0809937
			c-1.8096313,3.1420288-3.7709961,6.3377075-5.8853149,9.5869751v13.1958618H464.4436646z"/>
		<path d="M510.9285889,196.0762329v2.7131958H492.812439v-31.8638306h3.1263428v29.1506348H510.9285889z"/>
		<path d="M525.5510254,166.9255981h3.1263428v31.8638306h-3.1263428V166.9255981z"/>
		<path d="M565.9191895,169.776062c-0.7362061,0.8590698-1.5861206,1.9011841-2.5510864,3.1264038
			c-0.9649658,1.2264404-1.9992065,2.5679932-3.1015015,4.0233154c-1.1022949,1.456604-2.2280884,3.0047607-3.3774414,4.6444702
			c-1.149292,1.6396484-2.282959,3.2950439-3.4009399,4.9660645c-1.1179199,1.6710815-2.1744385,3.3186035-3.1694946,4.9425659
			c-0.9963379,1.6253052-1.8920288,3.1577759-2.6883545,4.5973511h18.7490234v2.7131958h-22.1630249v-2.3444214
			c0.6746826-1.3180542,1.4788208-2.7667847,2.4137573-4.3450317c0.9348755-1.5795288,1.9390869-3.2034912,3.0125732-4.8745728
			c1.0722046-1.6697388,2.1901855-3.3486328,3.3565063-5.0340576c1.1636963-1.6854858,2.3130493-3.3029175,3.447998-4.8510742
			c1.133667-1.5480957,2.2137451-2.9812012,3.2414551-4.2991943c1.0264282-1.3180542,1.9691772-2.4517212,2.8282471-3.4022827
			h-17.427124v-2.7131958h20.8294067V169.776062z"/>
		<path d="M604.2658691,198.7894287c-0.6080322-1.5651245-1.1676636-3.0701294-1.6776123-4.5150146
			c-0.5112305-1.4448242-0.9989624-2.8517456-1.4644775-4.2207642H585.557312
			c-0.5321655,1.3755493-1.0525513,2.7877197-1.5612183,4.2325439c-0.508606,1.446167-1.0473022,2.9472656-1.6160889,4.5032349
			h-3.2636719c1.2094727-3.3172607,2.3522949-6.4083252,3.4284058-9.2731934
			c1.0761108-2.8635254,2.1326294-5.5740967,3.1668701-8.1303711c1.0343018-2.5562744,2.0633545-5.0131836,3.083252-7.3706665
			c1.0198975-2.3562622,2.0921021-4.7189941,3.2165527-7.0895996h2.7563477
			c1.1245117,2.3588257,2.1914673,4.7202759,3.199585,7.0804443c1.0094604,2.3614502,2.0332642,4.8209229,3.0701294,7.3745728
			c1.038208,2.5549927,2.0908203,5.2668457,3.1577759,8.1356201c1.0656128,2.8687744,2.2398071,5.9598389,3.5198975,9.2731934
			H604.2658691z M593.3006592,170.512207c-1.1532593,2.6465454-2.2764282,5.3322144-3.3695679,8.0571899
			c-1.0930786,2.7249146-2.2241211,5.6643066-3.3930664,8.8168335h13.6011963
			c-1.1768188-3.1577148-2.3235474-6.1010742-3.437561-8.829895
			C595.5863037,175.8287354,594.4526367,173.1469727,593.3006592,170.512207z"/>
		<path d="M634.7959595,199.4785156c-2.0541382,0-3.9619141-0.3674316-5.7244873-1.1022949
			c-1.7625732-0.736145-3.2950439-1.8083496-4.5973511-3.2191772c-1.3036499-1.4095459-2.3300781-3.1499023-3.0806274-5.2184448
			c-0.7518311-2.0698853-1.1270752-4.4378662-1.1270752-7.1039429c0-2.6674194,0.4066162-5.0354004,1.2186279-7.1039429
			c0.8120117-2.0686035,1.8920288-3.80896,3.2414551-5.2185059c1.3480835-1.4095459,2.9119263-2.4751587,4.6901855-3.1956177
			c1.7769775-0.720459,3.6323853-1.0813599,5.5636597-1.0813599c1.1950684,0,2.282959,0.0771484,3.2649536,0.2301025
			c0.9806519,0.1542969,1.8384399,0.3452148,2.574585,0.5753174c0.7348022,0.2301636,1.3637695,0.4589844,1.885498,0.6890869
			c0.5203857,0.2301636,0.9191895,0.4367676,1.1950684,0.6210938l-1.0120239,2.7131958
			c-0.7662354-0.4602661-1.7403564-0.9126587-2.9197998-1.3572388c-1.1793823-0.4432373-2.6438599-0.6668701-4.3907471-0.6668701
			c-1.9927368,0-3.7317505,0.3386841-5.2184448,1.012085c-1.4880371,0.6746826-2.7354126,1.6252441-3.7474365,2.8504639
			c-1.012085,1.2264404-1.7704468,2.6831055-2.2764893,4.3685303c-0.5060425,1.6867676-0.7583618,3.5565186-0.7583618,5.609436
			c0,2.1156006,0.2523193,4.0233154,0.7583618,5.7244263c0.5060425,1.7011719,1.2487183,3.1499023,2.2307129,4.3450317
			c0.9806519,1.1951294,2.1835938,2.1156006,3.6088257,2.7589722c1.4252319,0.6433105,3.0584106,0.9649658,4.8967896,0.9649658
			c2.0228271,0,3.7174072-0.190918,5.0811768-0.5740356s2.3980713-0.7740479,3.104126-1.1728516l0.8734741,2.6673584
			c-0.2157593,0.1530151-0.5831909,0.3295288-1.1035767,0.5282593c-0.5217285,0.2000732-1.1807251,0.4066772-1.9770508,0.6210938
			c-0.7976074,0.2144775-1.7181396,0.3909912-2.7589111,0.5282593
			C637.2476196,199.4105225,636.0839233,199.4785156,634.7959595,199.4785156z"/>
		<path d="M674.5234375,188.765686c0,1.5338135-0.1542969,2.9511719-0.4602661,4.253479
			c-0.3059692,1.3036499-0.8355103,2.4373169-1.5860596,3.4022827c-0.7518311,0.9649658-1.7468872,1.7167969-2.9890747,2.2529297
			c-1.2409058,0.5360718-2.796875,0.8041382-4.666687,0.8041382c-1.1035767,0-2.1143188-0.0993652-3.0348511-0.2980957
			c-0.9191895-0.2000732-1.7312012-0.4367676-2.4359741-0.7126465c-0.7060547-0.2758789-1.2957764-0.5675049-1.7703857-0.8734741
			c-0.4759521-0.3059692-0.8355713-0.5818481-1.0813599-0.8276367l1.47229-2.5288086
			c0.2758789,0.2457886,0.619812,0.513855,1.0343018,0.8041382c0.413147,0.2915649,0.8956299,0.5596313,1.4474487,0.8041382
			c0.5517578,0.2457886,1.1650391,0.4458618,1.8397217,0.598877c0.6734009,0.1529541,1.4095459,0.2288208,2.2071533,0.2288208
			c2.3601685,0,4.0991821-0.619812,5.2184448-1.8619995c1.1192627-1.2408447,1.678894-3.3630371,1.678894-6.3677979v-21.5184326
			h3.1264038V188.765686z"/>
		<path d="M692.3166504,166.9255981h3.1263428v31.8638306h-3.1263428V166.9255981z"/>
		<path d="M741.5604858,166.6497192c4.5058594,0,7.8623657,0.8590698,10.069519,2.574585
			c2.2071533,1.7167969,3.31073,4.1541138,3.31073,7.3105469c0,1.8096313-0.322998,3.3499146-0.9663086,4.6209106
			c-0.6433105,1.2722168-1.5638428,2.2999878-2.7589722,3.0805664c-1.1950684,0.7819214-2.6595459,1.3494263-4.3907471,1.7011108
			c-1.7324829,0.3530884-3.6859741,0.5296021-5.8630981,0.5296021h-4.3214722v12.3223877h-3.1263428v-31.2662354
			c1.1035767-0.3059692,2.3980713-0.5282593,3.8847656-0.6668701
			C738.8852539,166.7189941,740.272522,166.6497192,741.5604858,166.6497192z M741.6978149,169.362915
			c-1.1650391,0-2.1535645,0.0379028-2.9655762,0.1150513c-0.8120117,0.0758057-1.5101929,0.1451416-2.0921021,0.206604v14.0692749
			h3.9540405c1.6854858,0,3.2113647-0.0993652,4.5751953-0.2980957c1.3637695-0.2000732,2.5288086-0.5675049,3.4950562-1.1035767
			c0.9649658-0.5361328,1.7077026-1.2800903,2.2293701-2.2307129c0.5204468-0.9492798,0.7819214-2.161377,0.7819214-3.6323853
			c0-1.4095459-0.2836914-2.574585-0.8511963-3.4937744c-0.5675049-0.9205322-1.3179932-1.647522-2.2529297-2.1849365
			c-0.9348755-0.5361328-1.9992676-0.911377-3.1956787-1.1257935
			C744.1808472,169.4700928,742.9543457,169.362915,741.6978149,169.362915z"/>
		<path d="M790.0682373,198.7894287c-0.6080322-1.5651245-1.1677246-3.0701294-1.6776123-4.5150146
			c-0.5112305-1.4448242-0.9990234-2.8517456-1.4644775-4.2207642h-15.5664673
			c-0.5321655,1.3755493-1.0525513,2.7877197-1.5612183,4.2325439c-0.508667,1.446167-1.0473633,2.9472656-1.6161499,4.5032349
			h-3.2636719c1.2095337-3.3172607,2.3522949-6.4083252,3.4284058-9.2731934
			c1.0761719-2.8635254,2.1326294-5.5740967,3.1669312-8.1303711s2.0632935-5.0131836,3.0831909-7.3706665
			c1.0198975-2.3562622,2.0921021-4.7189941,3.2166138-7.0895996h2.7562866
			c1.1245117,2.3588257,2.1915283,4.7202759,3.199585,7.0804443c1.0095215,2.3614502,2.0333252,4.8209229,3.0701904,7.3745728
			c1.038208,2.5549927,2.0908203,5.2668457,3.1577148,8.1356201c1.0656738,2.8687744,2.2398682,5.9598389,3.5200195,9.2731934
			H790.0682373z M779.1030273,170.512207c-1.1532593,2.6465454-2.2764282,5.3322144-3.3695679,8.0571899
			c-1.0931396,2.7249146-2.2241821,5.6643066-3.3931274,8.8168335h13.6011963
			c-1.1767578-3.1577148-2.3234863-6.1010742-3.4375-8.829895
			C781.3886719,175.8287354,780.2550049,173.1469727,779.1030273,170.512207z"/>
		<path d="M827.7258301,169.776062c-0.7362061,0.8590698-1.5860596,1.9011841-2.5510254,3.1264038
			c-0.9650879,1.2264404-1.9992676,2.5679932-3.1015625,4.0233154c-1.1022949,1.456604-2.2281494,3.0047607-3.3774414,4.6444702
			c-1.149292,1.6396484-2.282959,3.2950439-3.401001,4.9660645c-1.1179199,1.6710815-2.1744385,3.3186035-3.1694336,4.9425659
			c-0.9963379,1.6253052-1.8920898,3.1577759-2.6883545,4.5973511h18.7490234v2.7131958h-22.1630859v-2.3444214
			c0.6746826-1.3180542,1.4788818-2.7667847,2.4138184-4.3450317c0.9348145-1.5795288,1.9390869-3.2034912,3.0125732-4.8745728
			c1.0721436-1.6697388,2.1901855-3.3486328,3.3564453-5.0340576c1.1638184-1.6854858,2.3131104-3.3029175,3.4481201-4.8510742
			c1.1335449-1.5480957,2.213623-2.9812012,3.241333-4.2991943c1.0264893-1.3180542,1.9692383-2.4517212,2.8282471-3.4022827
			h-17.427002v-2.7131958h20.8293457V169.776062z"/>
		<path d="M865.5219727,198.7894287c-0.5922852-1.0656738-1.3337402-2.3235474-2.2268066-3.7722778
			c-0.8929443-1.4487915-1.885376-2.9864502-2.9772949-4.6143799c-1.0917969-1.6265869-2.2305908-3.3081055-3.4178467-5.0471802
			c-1.1872559-1.7363892-2.3693848-3.4257813-3.5461426-5.0680542c-1.1767578-1.642334-2.3287354-3.1812744-3.4545898-4.6170044
			c-1.1270752-1.4356689-2.1260986-2.6765747-2.9995117-3.7213135v26.84021h-3.0805664v-31.8638306h2.4830322
			c1.5638428,1.7456055,3.2414551,3.7631836,5.0288086,6.0500488c1.7874756,2.288269,3.5395508,4.6196289,5.2576904,6.9941406
			c1.7167969,2.3758545,3.321167,4.6954346,4.8092041,6.9627075c1.4893799,2.267334,2.7092285,4.2417603,3.6638184,5.9258423
			v-25.9327393h3.0805664v31.8638306H865.5219727z"/>
		<path d="M914.6729736,182.8346558c0,2.7288818-0.3988037,5.1347656-1.1950684,7.2189941
			c-0.7976074,2.0842285-1.8776855,3.8233032-3.2414551,5.2184448c-1.3651123,1.3952026-2.9511719,2.4451294-4.7595215,3.1499023
			s-3.723877,1.0565186-5.7467041,1.0565186c-2.0240479,0-3.9395752-0.3517456-5.7479248-1.0565186
			s-3.395752-1.7546997-4.7583008-3.1499023c-1.3649902-1.3951416-2.4450684-3.1342163-3.2426758-5.2184448
			c-0.7962646-2.0842285-1.1950684-4.4901123-1.1950684-7.2189941c0-2.7276001,0.3988037-5.1269531,1.1950684-7.1954956
			c0.7976074-2.0698853,1.8776855-3.8010864,3.2426758-5.196228c1.3625488-1.3938599,2.9499512-2.4438477,4.7583008-3.1499023
			c1.8083496-0.7047729,3.723877-1.0578003,5.7479248-1.0578003c2.0228271,0,3.9383545,0.3530273,5.7467041,1.0578003
			c1.8083496,0.7060547,3.3944092,1.7560425,4.7595215,3.1499023c1.3637695,1.3951416,2.4438477,3.1263428,3.2414551,5.196228
			C914.2741699,177.7077026,914.6729736,180.1070557,914.6729736,182.8346558z M911.3623047,182.8346558
			c0-2.1456909-0.2758789-4.0691528-0.8277588-5.7702637c-0.5517578-1.7011108-1.3323975-3.1499023-2.3443604-4.3450317
			c-1.012085-1.1964111-2.2293701-2.1077271-3.6560059-2.7366943c-1.4251709-0.6276245-3.0269775-0.942749-4.8039551-0.942749
			c-1.7781982,0-3.3800049,0.3151245-4.8051758,0.942749c-1.425293,0.6289673-2.6439209,1.5402832-3.6560059,2.7366943
			c-1.0107422,1.1951294-1.7926025,2.6439209-2.3443604,4.3450317c-0.5518799,1.7011108-0.8277588,3.6245728-0.8277588,5.7702637
			s0.2758789,4.0690918,0.8277588,5.7702026c0.5517578,1.7011719,1.3336182,3.1499023,2.3443604,4.3450317
			c1.012085,1.1951294,2.2307129,2.1156006,3.6560059,2.7589722c1.4251709,0.6433105,3.0269775,0.9649658,4.8051758,0.9649658
			c1.7769775,0,3.3787842-0.3216553,4.8039551-0.9649658c1.4266357-0.6433716,2.6439209-1.5638428,3.6560059-2.7589722
			c1.0119629-1.1951294,1.7926025-2.6438599,2.3443604-4.3450317
			C911.0864258,186.9037476,911.3623047,184.9803467,911.3623047,182.8346558z"/>
		<path d="M950.7667236,198.7894287c-1.0421143-1.5964966-2.213623-3.1773682-3.517334-4.7424927
			c-1.3022461-1.5651245-2.6739502-3.0387573-4.1148682-4.4208374c-1.440918-1.3807983-2.9040527-2.6399536-4.3907471-3.7762451
			c-1.4866943-1.1349487-2.9197998-2.086853-4.2991943-2.8543701v15.7939453h-3.1263428v-31.8638306h3.1263428v14.8289795
			c1.1650391-1.0407715,2.4608154-2.2424316,3.8886719-3.6049194c1.4251709-1.361145,2.8360596-2.7314453,4.2325439-4.1083374
			c1.3964844-1.3768311,2.7078857-2.6935425,3.9344482-3.9487915c1.2277832-1.2539673,2.2084961-2.3104858,2.9445801-3.1669312
			h3.7709961c-0.8891602,0.9492798-1.9639893,2.0737915-3.220459,3.3748169
			c-1.2579346,1.3010254-2.5928955,2.6399536-4.0037842,4.0167847c-1.4108887,1.3768921-2.8151855,2.7315063-4.2103271,4.0626221
			c-1.3964844,1.3310547-2.6464844,2.5013428-3.7501221,3.512085c0.8891602,0.5531006,1.8463135,1.2355957,2.8740234,2.0489502
			c1.0264893,0.8132935,2.0686035,1.7037354,3.1263428,2.6699829c1.0578613,0.9675903,2.0986328,1.980957,3.1264648,3.0387573
			c1.0263672,1.0591431,1.9926758,2.1260986,2.8962402,3.2009277c0.9047852,1.0748291,1.7167969,2.1169434,2.4372559,3.130249
			c0.720459,1.0133667,1.3101807,1.949585,1.7703857,2.8086548H950.7667236z"/>
		<path d="M980.6549072,199.4785156c-2.0541992,0-3.9619141-0.3674316-5.7244873-1.1022949
			c-1.7625732-0.736145-3.2950439-1.8083496-4.5974121-3.2191772c-1.3035889-1.4095459-2.3300781-3.1499023-3.0805664-5.2184448
			c-0.7518311-2.0698853-1.1270752-4.4378662-1.1270752-7.1039429c0-2.6674194,0.4066162-5.0354004,1.2186279-7.1039429
			c0.8120117-2.0686035,1.8919678-3.80896,3.2414551-5.2185059c1.3480225-1.4095459,2.9118652-2.4751587,4.6901855-3.1956177
			c1.7769775-0.720459,3.6323242-1.0813599,5.5635986-1.0813599c1.1950684,0,2.282959,0.0771484,3.2650146,0.2301025
			c0.9805908,0.1542969,1.8383789,0.3452148,2.574585,0.5753174c0.7347412,0.2301636,1.3637695,0.4589844,1.885498,0.6890869
			c0.5203857,0.2301636,0.9191895,0.4367676,1.1950684,0.6210938l-1.012085,2.7131958
			c-0.7662354-0.4602661-1.7403564-0.9126587-2.9197998-1.3572388c-1.1793213-0.4432373-2.6437988-0.6668701-4.3907471-0.6668701
			c-1.9926758,0-3.7316895,0.3386841-5.2183838,1.012085c-1.4880371,0.6746826-2.7354736,1.6252441-3.7474365,2.8504639
			c-1.012085,1.2264404-1.7705078,2.6831055-2.2764893,4.3685303c-0.5061035,1.6867676-0.7584229,3.5565186-0.7584229,5.609436
			c0,2.1156006,0.2523193,4.0233154,0.7584229,5.7244263c0.5059814,1.7011719,1.2486572,3.1499023,2.2307129,4.3450317
			c0.9805908,1.1951294,2.1835938,2.1156006,3.6087646,2.7589722c1.425293,0.6433105,3.0584717,0.9649658,4.8968506,0.9649658
			c2.0228271,0,3.7174072-0.190918,5.0811768-0.5740356s2.3980713-0.7740479,3.104126-1.1728516l0.8734131,2.6673584
			c-0.2156982,0.1530151-0.5831299,0.3295288-1.1035156,0.5282593c-0.5217285,0.2000732-1.1807861,0.4066772-1.9770508,0.6210938
			c-0.7976074,0.2144775-1.7181396,0.3909912-2.7589111,0.5282593
			C983.1065674,199.4105225,981.9428711,199.4785156,980.6549072,199.4785156z"/>
		<path d="M1005.0695801,166.9255981h3.1263428v31.8638306h-3.1263428V166.9255981z"/>
	</g>
</g>
</svg>
