<?xml version="1.0" encoding="utf-8"?>
<!-- Generator: Adobe Illustrator 21.0.2, SVG Export Plug-In . SVG Version: 6.00 Build 0)  -->
<svg version="1.1" id="Capa_1" xmlns="http://www.w3.org/2000/svg" xmlns:xlink="http://www.w3.org/1999/xlink" x="0px" y="0px"
	 viewBox="0 0 60 60" style="enable-background:new 0 0 60 60;" xml:space="preserve">
<style type="text/css">
	.st0{fill:#ED1C23;}
	.st1{fill:#FFFFFF;}
</style>
<g>
	<path class="st0" d="M55,60H5c-2.8,0-5-2.2-5-5V5c0-2.8,2.2-5,5-5h50c2.8,0,5,2.2,5,5v50C60,57.8,57.8,60,55,60z"/>
	<path class="st1" d="M51,56H9c-2.8,0-5-2.2-5-5V9c0-2.8,2.2-5,5-5h42c2.8,0,5,2.2,5,5v42C56,53.8,53.8,56,51,56z"/>
	<path class="st0" d="M46,49H14c-1.7,0-3-1.3-3-3V14c0-1.7,1.3-3,3-3h32c1.7,0,3,1.3,3,3v32C49,47.7,47.7,49,46,49z"/>
</g>
</svg>
