<svg xmlns="http://www.w3.org/2000/svg" xmlns:xlink="http://www.w3.org/1999/xlink" xmlns:fi="http://pattern.flaticon.com/" x="0" y="0" width="1700" height="850" viewBox="0 0 1700 850"><rect x="0px" y="0px" width="100%" height="100%" opacity="0" fill="#ffffff"/><defs><path d="m88.554 484.149h-81.054c-4.143 0-7.5-3.357-7.5-7.5s3.357-7.5 7.5-7.5h81.054c49.222 0 86.523-5.818 114.034-17.786 23.176-10.083 40.029-24.497 52.263-44.875h-89.205c-28.692 0-51.068-24.37-54.021-57.661h-104.125c-4.143 0-7.5-3.357-7.5-7.5s3.357-7.5 7.5-7.5h111.294c36.385 0 68.252-12.816 92.155-37.064l55.33-56.253-32.639-32.86c-1.747-1.759-2.512-4.268-2.044-6.702.469-2.435 2.11-4.48 4.385-5.466 7.005-3.033 13.641-5.879 19.961-8.591 28.948-12.417 51.813-22.226 72.894-34.129 3.607-2.033 8.183-.763 10.219 2.844s.764 8.182-2.844 10.219c-21.791 12.304-44.987 22.254-74.354 34.852-3.189 1.368-6.459 2.771-9.815 4.214l82.14 82.697c35.133-80.748 54.336-118.598 118.224-182.487l40.637-40.636c2.57-2.571 3.933-6.129 3.736-9.763-.199-3.682-1.913-7-4.826-9.344-4.992-4.014-12.653-3.406-17.443 1.385l-40.636 40.636c-27.71 27.709-49.656 46.761-71.16 61.775-3.398 2.373-8.073 1.541-10.443-1.855-2.371-3.396-1.54-8.072 1.855-10.443 20.756-14.491 42.079-33.021 69.14-60.083l40.634-40.639c10.299-10.296 26.399-11.355 37.451-2.465 6.186 4.975 9.978 12.346 10.403 20.222.426 7.881-2.528 15.601-8.106 21.179l-40.638 40.637c-64.562 64.563-82.243 102.024-119.472 187.995-.989 2.283-3.046 3.928-5.491 4.39-2.442.458-4.96-.319-6.713-2.085l-33.345-33.571c-8.829 8.946-30.214 30.574-55.466 55.827-1.916 1.915-3.771 3.77-5.566 5.564h59.249c9.432 0 17.106 7.665 17.11 17.086.004 13.905-3.688 26.987-10.394 36.838-7.441 10.928-18.018 17.263-30.788 18.509-28.15 54.536-83.427 77.889-183.58 77.889zm38.151-135.517c2.474 21.8 16.045 42.855 38.94 42.855h101.578c.101-.002.201-.002.302 0 9.787-.041 17.523-4.139 22.999-12.18 4.956-7.278 7.796-17.626 7.793-28.391 0-1.152-.947-2.091-2.11-2.091h-74.26c-18.829 18.807-27.629 27.557-27.742 27.669-2.937 2.922-7.686 2.908-10.606-.03-2.921-2.938-2.907-7.687.03-10.606.141-.14 13.614-13.537 42.984-42.9l-10.435-10.436c-24.03 21.797-55.312 34.422-89.473 36.11zm100.148-46.648 10.366 10.366c22.989-23.02 42.071-42.321 50.2-50.558l-10.568-10.641z" transform="matrix(0.11723443865776062 0 0 0.11723443865776062 332 259)" id="L1_0"/><g transform="matrix(0.125 0 0 0.125 102 80)" id="L1_5"><path d="M466.154,415.657l-60.268-47.017l-86.688-130.472l29.136-19.23c0,0,9.166-5.751,3.027-14.998     C343.46,192.039,235.527,29.602,235.527,29.602c-9.15-13.768-27.828-17.559-41.638-8.442l-23.446,15.475v-6.644     C170.443,13.454,156.959,0,140.384,0H80.207c-16.575,0-30.06,13.454-30.06,29.991v202.786C21.188,241.356,0,268.204,0,299.907     V449.82c0,16.541,13.458,29.998,30,29.998h160.59c16.542,0,30-13.457,30-29.998V299.906c0-31.703-21.188-58.551-50.147-67.13     v-83.942l81.092,122.049c0.001,0.001,1.386,1.665,1.386,1.665c5.939,5.843,12.432,1.16,12.434,1.158     c0.004-0.002,37.152-24.52,37.152-24.52l86.72,130.52l19.908,73.648c3.047,11.278,11.076,20.123,22.024,24.265     c4.212,1.594,8.561,2.381,12.875,2.381c6.93,0,13.771-2.032,19.805-6.014c9.789-6.461,15.669-16.876,16.132-28.576     C480.434,433.714,475.398,422.869,466.154,415.657z M70.147,29.991c0-5.511,4.513-9.993,10.06-9.993h60.177     c5.547,0,10.06,4.483,10.06,9.993v19.844l-6.728,4.44c-6.705,4.426-11.277,11.193-12.875,19.054     c-1.596,7.852-0.032,15.854,4.405,22.532l15.26,22.967c-0.042,0.37-0.063,0.747-0.063,1.128v109.955H70.147V29.991z      M200.59,299.907v149.914c0,5.513-4.486,9.999-10,9.999H30c-5.514,0-10-4.486-10-9.999V299.907c0-27.569,22.43-49.997,50-49.997     h80.59C178.161,249.91,200.59,272.338,200.59,299.907z M262.676,251.512L151.904,84.793c-1.474-2.219-1.994-4.876-1.465-7.481     c0.532-2.616,2.057-4.87,4.294-6.346l50.174-33.114c1.711-1.129,3.643-1.669,5.555-1.669c3.266,0,6.473,1.578,8.407,4.488     l110.737,166.667L262.676,251.512z M459.986,444.62c-0.205,5.186-2.816,9.806-7.165,12.676     c-4.369,2.883-9.687,3.471-14.585,1.619c-4.871-1.844-8.441-5.772-9.795-10.779l-12.514-46.296l37.925,29.586     C457.956,434.628,460.192,439.436,459.986,444.62z"/><path d="M130.383,279.895c0,5.522,4.478,9.999,10,9.999c11.077,0,20.089,8.967,20.089,19.989v120.093     c0,5.522,4.478,9.999,10,9.999c5.522,0,10-4.477,10-9.999V309.883c0-22.05-17.984-39.988-40.089-39.988     C134.861,269.895,130.383,274.372,130.383,279.895z"/></g></defs><g fi:class="KUsePattern"><pattern id="pattern_L1_0" width="350" height="350" patternUnits="userSpaceOnUse"><use xlink:href="#L1_0" x="-350" y="-350"/><use xlink:href="#L1_0" x="0" y="-350"/><use xlink:href="#L1_0" x="350" y="-350"/><use xlink:href="#L1_0" x="-350" y="0"/><use xlink:href="#L1_0" x="0" y="0"/><use xlink:href="#L1_0" x="350" y="0"/><use xlink:href="#L1_0" x="-350" y="350"/><use xlink:href="#L1_0" x="0" y="350"/><use xlink:href="#L1_0" x="350" y="350"/></pattern><rect x="0" y="0" width="100%" height="100%" fill="url(#pattern_L1_0)"/></g><g fi:class="KUsePattern"><pattern id="pattern_L1_5" width="350" height="350" patternUnits="userSpaceOnUse"><use xlink:href="#L1_5" x="-350" y="-350"/><use xlink:href="#L1_5" x="0" y="-350"/><use xlink:href="#L1_5" x="350" y="-350"/><use xlink:href="#L1_5" x="-350" y="0"/><use xlink:href="#L1_5" x="0" y="0"/><use xlink:href="#L1_5" x="350" y="0"/><use xlink:href="#L1_5" x="-350" y="350"/><use xlink:href="#L1_5" x="0" y="350"/><use xlink:href="#L1_5" x="350" y="350"/></pattern><rect x="0" y="0" width="100%" height="100%" fill="url(#pattern_L1_5)"/></g></svg>